<svg xmlns="http://www.w3.org/2000/svg" style="display:none">
  <defs>

    <symbol id="ti-lot" viewBox="0 0 24 24" fill="none" stroke="currentColor" stroke-width="2" stroke-linecap="round" stroke-linejoin="round">
      <path d="M20.5 11.5 13 4H5a1 1 0 0 0-1 1v8l8.5 8.5a1.4 1.4 0 0 0 2 0l6-6a1.4 1.4 0 0 0 0-2z"/>
      <circle cx="8.5" cy="8.5" r="1.5"/>
      <path d="M11 13h4M11 16h2"/>
    </symbol>

    <symbol id="ti-machine" viewBox="0 0 24 24" fill="none" stroke="currentColor" stroke-width="2" stroke-linecap="round" stroke-linejoin="round">
      <rect x="3" y="4" width="18" height="16" rx="1.5"/>
      <path d="M7 4v16M11 4v16M15 4v16M19 4v16"/>
      <path d="M3 12h18"/>
    </symbol>

    <symbol id="ti-yarn" viewBox="0 0 24 24" fill="none" stroke="currentColor" stroke-width="2" stroke-linecap="round" stroke-linejoin="round">
      <ellipse cx="6" cy="12" rx="3" ry="8"/>
      <path d="M6 4h12a3 8 0 0 1 0 16H6"/>
      <path d="M9 8h9M9 12h9M9 16h9"/>
    </symbol>

    <symbol id="ti-fabric" viewBox="0 0 24 24" fill="none" stroke="currentColor" stroke-width="2" stroke-linecap="round" stroke-linejoin="round">
      <rect x="3" y="6" width="4" height="14" rx="0.5"/>
      <rect x="8" y="4" width="4" height="16" rx="0.5"/>
      <rect x="13" y="6" width="4" height="14" rx="0.5"/>
      <rect x="18" y="8" width="3" height="12" rx="0.5"/>
    </symbol>

    <symbol id="ti-dye" viewBox="0 0 24 24" fill="none" stroke="currentColor" stroke-width="2" stroke-linecap="round" stroke-linejoin="round">
      <path d="M4 6h16v11a3 3 0 0 1-3 3H7a3 3 0 0 1-3-3z"/>
      <path d="M4 13c2 1 4 1 6 0s4-1 6 0"/>
      <path d="M12 2c1.5 1.8 2.5 3.2 2.5 4.5a2.5 2.5 0 0 1-5 0C9.5 5.2 10.5 3.8 12 2z"/>
    </symbol>

    <symbol id="ti-knit" viewBox="0 0 24 24" fill="none" stroke="currentColor" stroke-width="2" stroke-linecap="round" stroke-linejoin="round">
      <path d="M5 4h14M5 20h14"/>
      <path d="M7 4v16M17 4v16"/>
      <path d="M7 8c2 1 4 1 5 0s3-1 5 0"/>
      <path d="M7 12c2 1 4 1 5 0s3-1 5 0"/>
      <path d="M7 16c2 1 4 1 5 0s3-1 5 0"/>
    </symbol>

    <symbol id="ti-weave" viewBox="0 0 24 24" fill="none" stroke="currentColor" stroke-width="2" stroke-linecap="round" stroke-linejoin="round">
      <path d="M3 8h18M3 12h18M3 16h18"/>
      <path d="M8 3v18M12 3v18M16 3v18"/>
    </symbol>

    <symbol id="ti-cut" viewBox="0 0 24 24" fill="none" stroke="currentColor" stroke-width="2" stroke-linecap="round" stroke-linejoin="round">
      <circle cx="6" cy="7" r="2"/>
      <circle cx="6" cy="17" r="2"/>
      <path d="M8.5 8.5 20 17M8.5 15.5 20 7"/>
    </symbol>

    <symbol id="ti-sew" viewBox="0 0 24 24" fill="none" stroke="currentColor" stroke-width="2" stroke-linecap="round" stroke-linejoin="round">
      <path d="M20 4L4 20"/>
      <circle cx="19" cy="5" r="2"/>
      <path d="M17 5h-4"/>
      <path d="M4 12c1-1 2-1 3 0s2 1 3 0 2-1 3 0"/>
    </symbol>

    <symbol id="ti-finish" viewBox="0 0 24 24" fill="none" stroke="currentColor" stroke-width="2" stroke-linecap="round" stroke-linejoin="round">
      <path d="M4 7h16l-1.5 9a2 2 0 0 1-2 1.7H7.5a2 2 0 0 1-2-1.7z"/>
      <path d="M9 7V5a3 3 0 0 1 6 0v2"/>
      <path d="M10 12h4M9 15h6"/>
    </symbol>

    <symbol id="ti-pack" viewBox="0 0 24 24" fill="none" stroke="currentColor" stroke-width="2" stroke-linecap="round" stroke-linejoin="round">
      <path d="M21 8a2 2 0 0 0-1-1.73l-7-4a2 2 0 0 0-2 0l-7 4A2 2 0 0 0 3 8v8a2 2 0 0 0 1 1.73l7 4a2 2 0 0 0 2 0l7-4A2 2 0 0 0 21 16z"/>
      <path d="M3.27 6.96 12 12.01l8.73-5.05M12 22.08V12"/>
    </symbol>

    <symbol id="ti-ship" viewBox="0 0 24 24" fill="none" stroke="currentColor" stroke-width="2" stroke-linecap="round" stroke-linejoin="round">
      <path d="M3 8a2 2 0 0 1 2-2h6l9 9-7 7-9-9z"/>
      <circle cx="8" cy="11" r="1.5"/>
    </symbol>

    <symbol id="ti-qc" viewBox="0 0 24 24" fill="none" stroke="currentColor" stroke-width="2" stroke-linecap="round" stroke-linejoin="round">
      <path d="M12 22s8-4 8-10V5l-8-3-8 3v7c0 6 8 10 8 10z"/>
      <path d="M9 12l2 2 4-4"/>
    </symbol>

    <symbol id="ti-dpp" viewBox="0 0 24 24" fill="none" stroke="currentColor" stroke-width="2" stroke-linecap="round" stroke-linejoin="round">
      <rect x="4" y="2" width="16" height="20" rx="2"/>
      <path d="M8 7h8"/>
      <rect x="8" y="11" width="3" height="3"/>
      <rect x="13" y="11" width="3" height="3"/>
      <rect x="8" y="16" width="3" height="3"/>
      <path d="M13 16h3M13 19h2"/>
    </symbol>

    <symbol id="ti-plant" viewBox="0 0 24 24" fill="none" stroke="currentColor" stroke-width="2" stroke-linecap="round" stroke-linejoin="round">
      <path d="M3 9l9-7 9 7v11a2 2 0 0 1-2 2H5a2 2 0 0 1-2-2z"/>
      <polyline points="9 22 9 12 15 12 15 22"/>
    </symbol>

    <symbol id="ti-thread" viewBox="0 0 24 24" fill="none" stroke="currentColor" stroke-width="2" stroke-linecap="round" stroke-linejoin="round">
      <path d="M5 4h14M5 20h14"/>
      <path d="M7 4v16M17 4v16"/>
      <path d="M7 7c2 1 4 1 5 0s3-1 5 0"/>
      <path d="M7 11c2 1 4 1 5 0s3-1 5 0"/>
      <path d="M7 15c2 1 4 1 5 0s3-1 5 0"/>
    </symbol>

  </defs>
</svg>
